<?xml version="1.0" encoding="iso-8859-1"?>
<!-- Uploaded to: SVG Repo, www.svgrepo.com, Generator: SVG Repo Mixer Tools -->
<svg fill="#000000" height="800px" width="800px" version="1.1" id="Layer_1" xmlns="http://www.w3.org/2000/svg" xmlns:xlink="http://www.w3.org/1999/xlink" 
	 viewBox="0 0 512 512" xml:space="preserve">
<g>
	<g>
		<path d="M360.306,97.159c-1.4-3.828-3.124-7.57-5.166-11.191c-9.825-17.422-25.848-29.976-45.114-35.348
			c-10.586-2.951-21.506-3.522-32.093-1.802C267.327,20.342,239.866,0,207.738,0c-21.51,0-41.344,8.976-55.291,24.307
			c-8.24-3.054-17.007-4.635-26.016-4.635c-41.291,0-74.883,33.592-74.883,74.883c0,3.98,0.318,7.916,0.934,11.777
			c1.378,8.629,8.911,14.93,17.65,14.93h273.394v0.001C355.984,121.263,364.585,108.86,360.306,97.159z"/>
	</g>
</g>
<g>
	<g>
		<path d="M376.147,162.374h-10.931c-0.005-0.075-0.015-0.149-0.02-0.225H62.973c-1.998,0-3.666,1.599-3.668,3.598
			c0,0.012,0,0.025,0,0.037v243.14C59.305,465.851,105.454,512,162.381,512h99.891c45.938,0,84.939-30.213,98.213-71.807h15.663
			c46.56,0,84.305-37.745,84.305-84.305V246.681C460.453,200.119,422.708,162.374,376.147,162.374z M419.565,355.888
			c0,23.94-19.478,43.416-43.417,43.416h-10.8V203.262h10.8c23.94,0,43.417,19.476,43.417,43.416V355.888z"/>
	</g>
</g>
</svg>